<svg width="804" height="658" viewBox="0 0 804 658" fill="none" xmlns="http://www.w3.org/2000/svg">
<path d="M402.002 180C441.214 180 473.002 148.212 473.002 109C473.002 69.7878 441.214 38 402.002 38C362.79 38 331.002 69.7878 331.002 109C331.002 148.212 362.79 180 402.002 180ZM402.002 180V445M400.297 436.584L297.297 589.584M403.706 436.584L506.706 589.584M251 275.75H553.724" stroke="#86AECB" stroke-width="50"/>
<path d="M514.233 25H580.553C627.887 25 666.259 63.3653 666.259 110.691V177C666.259 177 666.259 329 804 329C666.259 329 666.259 481 666.259 481V547.309C666.259 594.635 627.887 633 580.553 633H514.233M289.766 633H223.447C176.113 633 137.741 594.635 137.741 547.309V481C137.741 481 137.741 329 0 329C137.741 329 137.741 177 137.741 177V110.691C137.741 63.3653 176.113 25 223.447 25H289.766" stroke="#ADFF49" stroke-width="50"/>
</svg>
