<svg width="512" height="512" viewBox="0 0 512 512" fill="none" xmlns="http://www.w3.org/2000/svg">
<rect width="512" height="512" rx="256" fill="#E9CC8C"/>
<rect x="7.5" y="7.5" width="497" height="497" rx="248.5" stroke="#837B74" stroke-opacity="0.31" stroke-width="15"/>
<path d="M255.344 181.653C274.853 181.653 290.667 165.838 290.667 146.33C290.667 126.821 274.853 111.006 255.344 111.006C235.835 111.006 220.021 126.821 220.021 146.33C220.021 165.838 235.835 181.653 255.344 181.653ZM255.344 181.653V313.494M254.496 309.307L203.252 385.426M256.192 309.307L307.436 385.426M180.219 229.29H330.827" stroke="#4A3821" stroke-width="16.4179"/>
<path d="M311.838 104.756H344.832C368.382 104.756 387.472 123.844 387.472 147.389V180.378C387.472 180.378 387.472 256 456 256C387.472 256 387.472 331.622 387.472 331.622V364.611C387.472 388.157 368.382 407.244 344.832 407.244H311.838M200.162 407.244H167.168C143.618 407.244 124.528 388.157 124.528 364.611V331.622C124.528 331.622 124.528 256 56 256C124.528 256 124.528 180.378 124.528 180.378V147.389C124.528 123.844 143.618 104.756 167.168 104.756H200.162" stroke="#726A63" stroke-width="21.8905"/>
</svg>
