<svg width="400" height="325" viewBox="0 0 400 325" fill="none" xmlns="http://www.w3.org/2000/svg">
<path d="M199.344 87.8421C218.853 87.8421 234.667 72.0273 234.667 52.5187C234.667 33.0101 218.853 17.1953 199.344 17.1953C179.835 17.1953 164.021 33.0101 164.021 52.5187C164.021 72.0273 179.835 87.8421 199.344 87.8421ZM199.344 87.8421V219.683M198.496 215.496L147.252 291.615M200.192 215.496L251.436 291.615M124.219 135.479H274.827" stroke="#E9CC8C" stroke-width="16.4179"/>
<path d="M255.838 10.9453H288.832C312.382 10.9453 331.472 30.0325 331.472 53.5778V86.5672C331.472 86.5672 331.472 162.189 400 162.189C331.472 162.189 331.472 237.811 331.472 237.811V270.8C331.472 294.346 312.382 313.433 288.832 313.433H255.838M144.162 313.433H111.168C87.6183 313.433 68.5279 294.346 68.5279 270.8V237.811C68.5279 237.811 68.5279 162.189 0 162.189C68.5279 162.189 68.5279 86.5672 68.5279 86.5672V53.5778C68.5279 30.0325 87.6183 10.9453 111.168 10.9453H144.162" stroke="#A06527" stroke-width="21.8905"/>
</svg>
